# xmcd
#
# Track frame offsets:
# 150
# 12750
# 26114
# 38710
# 56236
# 74537
# 89937
# 106340
# 126175
# 142666
# 162253
# 182948
#
# Disc length: 2765 seconds
#
# Revision: 0
# Processed by: cddbd v1.5.2PL0 Copyright (c) Steve Scherf et al.
# Submitted via: Axialis_AX_CDPlayer 2.6
#
DISCID=aa0acb0c
DTITLE=Jypsi - Jypsi
DYEAR=1900
DGENRE=
TTITLE0=Now That's All Right With Me
TTITLE1=Love Is A Drug
TTITLE2=I Do What I Want
TTITLE3=I Don't Love You Like That
TTITLE4=You Don't Know What Real Love Is
TTITLE5=Shame On Me
TTITLE6=Stray Dogs And Alley Cats
TTITLE7=House Of The Rising Sun
TTITLE8=Free
TTITLE9=Halfway Home Cafe
TTITLE10=First Thing On My Mind
TTITLE11=Kandi Kitchen
EXTD=www.myspace.com/jypsi
EXTT0=
EXTT1=
EXTT2=
EXTT3=
EXTT4=
EXTT5=
EXTT6=
EXTT7=
EXTT8=
EXTT9=
EXTT10=
EXTT11=
PLAYORDER=
